<svg width="16" height="16" viewBox="0 0 16 16" fill="none" xmlns="http://www.w3.org/2000/svg">
<g clip-path="url(#clip0)">
<path d="M4.608 13.794C5.004 13.794 5.352 13.788 5.652 13.776C5.964 13.752 6.222 13.716 6.426 13.668V10.878C6.306 10.818 6.108 10.77 5.832 10.734C5.568 10.686 5.244 10.662 4.86 10.662C4.608 10.662 4.338 10.68 4.05 10.716C3.774 10.752 3.516 10.83 3.276 10.95C3.048 11.058 2.856 11.214 2.7 11.418C2.544 11.61 2.466 11.868 2.466 12.192C2.466 12.792 2.658 13.212 3.042 13.452C3.426 13.68 3.948 13.794 4.608 13.794ZM4.464 5.406C5.136 5.406 5.7 5.496 6.156 5.676C6.624 5.844 6.996 6.09 7.272 6.414C7.56 6.726 7.764 7.104 7.884 7.548C8.004 7.98 8.064 8.46 8.064 8.988V14.838C7.92 14.862 7.716 14.898 7.452 14.946C7.2 14.982 6.912 15.018 6.588 15.054C6.264 15.09 5.91 15.12 5.526 15.144C5.154 15.18 4.782 15.198 4.41 15.198C3.882 15.198 3.396 15.144 2.952 15.036C2.508 14.928 2.124 14.76 1.8 14.532C1.476 14.292 1.224 13.98 1.044 13.596C0.864 13.212 0.774 12.75 0.774 12.21C0.774 11.694 0.876 11.25 1.08 10.878C1.296 10.506 1.584 10.206 1.944 9.978C2.304 9.75 2.724 9.582 3.204 9.474C3.684 9.366 4.188 9.312 4.716 9.312C4.884 9.312 5.058 9.324 5.238 9.348C5.418 9.36 5.586 9.384 5.742 9.42C5.91 9.444 6.054 9.468 6.174 9.492C6.294 9.516 6.378 9.534 6.426 9.546V9.078C6.426 8.802 6.396 8.532 6.336 8.268C6.276 7.992 6.168 7.752 6.012 7.548C5.856 7.332 5.64 7.164 5.364 7.044C5.1 6.912 4.752 6.846 4.32 6.846C3.768 6.846 3.282 6.888 2.862 6.972C2.454 7.044 2.148 7.122 1.944 7.206L1.746 5.82C1.962 5.724 2.322 5.634 2.826 5.55C3.33 5.454 3.876 5.406 4.464 5.406ZM13.6523 15.18C12.6203 15.156 11.8883 14.934 11.4563 14.514C11.0243 14.094 10.8083 13.44 10.8083 12.552V1.32L12.4823 1.032V12.282C12.4823 12.558 12.5063 12.786 12.5543 12.966C12.6023 13.146 12.6803 13.29 12.7883 13.398C12.8963 13.506 13.0403 13.59 13.2203 13.65C13.4003 13.698 13.6223 13.74 13.8863 13.776L13.6523 15.18Z" fill="#9C55F6"/>
</g>
<defs>
<clipPath id="clip0">
<rect width="16" height="16" fill="white"/>
</clipPath>
</defs>
</svg>
